# xmcd
#
# Track frame offsets:
#	150
#	24468
#	51030
#	83580
#	104280
#	134598
#	160390
#	187683
#	215175
#	241163
#	268663
#	298598
#
# Disc length: 4219
#
# Revision: 3
# Processed by: cddbd v1.5.1PL0 Copyright (c) Steve Scherf et al.
# Submitted via: audiograbber 1.81.02
# Normalized: r2:DSETVAR1
#
DISCID=a610790c
DTITLE=Various Artist - Street Tracks 33
DYEAR=1900
DGENRE=
TTITLE0=Salt 'n' Pepa - Gitty Up
TTITLE1=The Police - Roxanne '97
TTITLE2=Will Smith - Gettin' Jiggy Wit It
TTITLE3=Destiny's child - No No No
TTITLE4=2 Pac - Do For Love
TTITLE5=Wyclef Jean - Gone Till November
TTITLE6=David Hollister - The Weekend
TTITLE7=Ice Cube - We Be Clubbin'
TTITLE8=Jay Z - The City Is Mine
TTITLE9=Eboni Foster - Crazy For You
TTITLE10=Farra Burns et al - Never Look For
TTITLE11=Busta Rhymes - Turn It Up
EXTD=
EXTT0=Salt-N-Pepa
EXTT1=Sting and The Police
EXTT2=Will Smith
EXTT3=Destiny's Child
EXTT4=2 Pac
EXTT5=Wyclef Jean
EXTT6=Dave Hollister Feat Redman
EXTT7=Ice Cube
EXTT8=Jay-Z
EXTT9=Eboni Foster
EXTT10=Farr Burns Feat
EXTT11=Busto Rhymes
PLAYORDER=
